<svg width="121" height="35" viewBox="0 0 121 35" fill="none" xmlns="http://www.w3.org/2000/svg">
<path d="M3.46448 7.84096H8.09232V28.6023C8.09232 30.0171 7.82386 31.1847 7.28692 32.1052C6.74999 33.0256 5.97442 33.7117 4.96022 34.1634C3.94601 34.6151 2.71448 34.841 1.26562 34.841C1.09516 34.841 0.937492 34.8367 0.792605 34.8282C0.647719 34.8282 0.490048 34.8239 0.319594 34.8154V31.0441C0.447435 31.0526 0.562492 31.0569 0.664764 31.0569C0.767037 31.0654 0.873571 31.0697 0.984367 31.0697C1.87073 31.0697 2.50567 30.8523 2.8892 30.4177C3.27272 29.9915 3.46448 29.3651 3.46448 28.5384V7.84096ZM5.76562 5.05403C5.02414 5.05403 4.3892 4.81113 3.86079 4.32534C3.3409 3.83102 3.08096 3.23869 3.08096 2.54835C3.08096 1.84948 3.3409 1.25715 3.86079 0.771358C4.3892 0.27704 5.02414 0.0298815 5.76562 0.0298815C6.49857 0.0298815 7.12499 0.27704 7.64488 0.771358C8.17329 1.25715 8.43749 1.84948 8.43749 2.54835C8.43749 3.23869 8.17329 3.83102 7.64488 4.32534C7.12499 4.81113 6.49857 5.05403 5.76562 5.05403ZM18.5018 27.8736C17.2574 27.8736 16.1367 27.652 15.1396 27.2089C14.1509 26.7572 13.3668 26.0924 12.7873 25.2145C12.2163 24.3367 11.9307 23.2543 11.9307 21.9674C11.9307 20.8594 12.1353 19.9432 12.5444 19.2188C12.9535 18.4944 13.5117 17.9148 14.2191 17.4802C14.9265 17.0455 15.7234 16.7174 16.6097 16.4958C17.5046 16.2657 18.4293 16.0995 19.3839 15.9972C20.5344 15.8779 21.4677 15.7714 22.1836 15.6776C22.8995 15.5753 23.4194 15.4219 23.7432 15.2174C24.0756 15.0043 24.2418 14.6762 24.2418 14.233V14.1563C24.2418 13.1932 23.9563 12.4475 23.3853 11.9191C22.8143 11.3907 21.9918 11.1265 20.918 11.1265C19.7844 11.1265 18.8853 11.3736 18.2205 11.868C17.5643 12.3623 17.1211 12.9461 16.891 13.6194L12.5699 13.0057C12.9109 11.8126 13.4734 10.8154 14.2574 10.0143C15.0415 9.2046 16.0003 8.59948 17.1339 8.19892C18.2674 7.78983 19.5202 7.58528 20.8924 7.58528C21.8384 7.58528 22.7802 7.69608 23.7177 7.91767C24.6552 8.13926 25.5117 8.50573 26.2873 9.0171C27.0628 9.51994 27.685 10.206 28.1538 11.0753C28.631 11.9447 28.8697 13.0313 28.8697 14.3353V27.4773H24.4208V24.7799H24.2674C23.9861 25.3253 23.5898 25.8367 23.0785 26.314C22.5756 26.7827 21.9407 27.162 21.1736 27.4518C20.4151 27.733 19.5245 27.8736 18.5018 27.8736ZM19.7035 24.4731C20.6324 24.4731 21.4378 24.2898 22.1197 23.9233C22.8015 23.5483 23.3256 23.054 23.6921 22.4404C24.0671 21.8268 24.2546 21.1577 24.2546 20.4333V18.1194C24.1097 18.2387 23.8626 18.3495 23.5131 18.4518C23.1722 18.554 22.7887 18.6435 22.3626 18.7202C21.9364 18.7969 21.5146 18.8651 21.0969 18.9248C20.6793 18.9844 20.3171 19.0356 20.0103 19.0782C19.3199 19.1719 18.7021 19.3253 18.1566 19.5384C17.6111 19.7515 17.1807 20.0498 16.8654 20.4333C16.5501 20.8083 16.3924 21.2941 16.3924 21.8907C16.3924 22.743 16.7035 23.3864 17.3256 23.8211C17.9478 24.2557 18.7404 24.4731 19.7035 24.4731ZM33.5231 27.4773V7.84096H38.1509V27.4773H33.5231ZM35.8498 5.05403C35.1168 5.05403 34.4861 4.81113 33.9577 4.32534C33.4293 3.83102 33.1651 3.23869 33.1651 2.54835C33.1651 1.84948 33.4293 1.25715 33.9577 0.771358C34.4861 0.27704 35.1168 0.0298815 35.8498 0.0298815C36.5913 0.0298815 37.2219 0.27704 37.7418 0.771358C38.2702 1.25715 38.5344 1.84948 38.5344 2.54835C38.5344 3.23869 38.2702 3.83102 37.7418 4.32534C37.2219 4.81113 36.5913 5.05403 35.8498 5.05403ZM42.9098 27.4773V7.84096H47.397V11.1137H47.6016C47.9595 9.98017 48.5731 9.10659 49.4425 8.49295C50.3203 7.87079 51.3217 7.55971 52.4467 7.55971C52.7024 7.55971 52.9879 7.57249 53.3033 7.59806C53.6271 7.61511 53.8956 7.64494 54.1087 7.68755V11.9447C53.9126 11.8765 53.6016 11.8168 53.1754 11.7657C52.7578 11.706 52.353 11.6762 51.9609 11.6762C51.1172 11.6762 50.3587 11.8594 49.6854 12.2259C49.0206 12.5839 48.4964 13.0824 48.1129 13.7216C47.7294 14.3608 47.5376 15.0981 47.5376 15.9333V27.4773H42.9098ZM57.3878 27.4773V1.29551H62.0156V11.0881H62.2074C62.446 10.6108 62.7827 10.1037 63.2173 9.56681C63.652 9.02136 64.24 8.55687 64.9815 8.17335C65.723 7.7813 66.669 7.58528 67.8196 7.58528C69.3366 7.58528 70.7045 7.97306 71.9233 8.74863C73.1506 9.51568 74.1222 10.6535 74.8381 12.162C75.5625 13.662 75.9247 15.5029 75.9247 17.6847C75.9247 19.841 75.571 21.6733 74.8636 23.1819C74.1562 24.6904 73.1932 25.841 71.9744 26.6336C70.7557 27.4262 69.375 27.8225 67.8324 27.8225C66.7074 27.8225 65.7741 27.635 65.0327 27.26C64.2912 26.885 63.6946 26.4333 63.2429 25.9049C62.7997 25.368 62.4545 24.8608 62.2074 24.3836H61.9389V27.4773H57.3878ZM61.9261 17.6591C61.9261 18.929 62.1051 20.0412 62.4631 20.9958C62.8295 21.9503 63.3537 22.6961 64.0355 23.233C64.7258 23.7614 65.5611 24.0256 66.5412 24.0256C67.5639 24.0256 68.4204 23.7529 69.1108 23.2074C69.8011 22.6535 70.321 21.8992 70.6704 20.9447C71.0284 19.9816 71.2074 18.8864 71.2074 17.6591C71.2074 16.4404 71.0327 15.358 70.6832 14.412C70.3338 13.466 69.8139 12.7245 69.1236 12.1876C68.4332 11.6506 67.5724 11.3822 66.5412 11.3822C65.5525 11.3822 64.7131 11.6421 64.0227 12.162C63.3324 12.6819 62.8082 13.4106 62.4503 14.3481C62.1008 15.2856 61.9261 16.3893 61.9261 17.6591ZM84.4869 15.9716V27.4773H79.859V7.84096H84.2823V11.1776H84.5124C84.9641 10.0782 85.6843 9.2046 86.6729 8.55687C87.6701 7.90914 88.9016 7.58528 90.3675 7.58528C91.7226 7.58528 92.903 7.87505 93.9087 8.4546C94.9229 9.03414 95.707 9.87363 96.261 10.9731C96.8235 12.0725 97.1005 13.4063 97.092 14.9745V27.4773H92.4641V15.6904C92.4641 14.3779 92.1232 13.3509 91.4414 12.6094C90.7681 11.8679 89.8349 11.4972 88.6417 11.4972C87.832 11.4972 87.1119 11.6762 86.4812 12.0341C85.859 12.3836 85.369 12.8907 85.011 13.5555C84.6616 14.2202 84.4869 15.0256 84.4869 15.9716ZM102.001 27.4773V1.29551H106.629V11.0881H106.821C107.059 10.6108 107.396 10.1037 107.831 9.56681C108.265 9.02136 108.853 8.55687 109.595 8.17335C110.336 7.7813 111.282 7.58528 112.433 7.58528C113.95 7.58528 115.318 7.97306 116.537 8.74863C117.764 9.51568 118.735 10.6535 119.451 12.162C120.176 13.662 120.538 15.5029 120.538 17.6847C120.538 19.841 120.184 21.6733 119.477 23.1819C118.77 24.6904 117.806 25.841 116.588 26.6336C115.369 27.4262 113.988 27.8225 112.446 27.8225C111.321 27.8225 110.387 27.635 109.646 27.26C108.904 26.885 108.308 26.4333 107.856 25.9049C107.413 25.368 107.068 24.8608 106.821 24.3836H106.552V27.4773H102.001ZM106.539 17.6591C106.539 18.929 106.718 20.0412 107.076 20.9958C107.443 21.9503 107.967 22.6961 108.649 23.233C109.339 23.7614 110.174 24.0256 111.154 24.0256C112.177 24.0256 113.034 23.7529 113.724 23.2074C114.414 22.6535 114.934 21.8992 115.284 20.9447C115.642 19.9816 115.821 18.8864 115.821 17.6591C115.821 16.4404 115.646 15.358 115.297 14.412C114.947 13.466 114.427 12.7245 113.737 12.1876C113.047 11.6506 112.186 11.3822 111.154 11.3822C110.166 11.3822 109.326 11.6421 108.636 12.162C107.946 12.6819 107.422 13.4106 107.064 14.3481C106.714 15.2856 106.539 16.3893 106.539 17.6591Z" fill="#FF385C"/>
</svg>
