<svg width="114" height="36" viewBox="0 0 114 36" fill="none" xmlns="http://www.w3.org/2000/svg">
<path d="M3.06817 8.84096H9.31959V29.2955C9.31959 30.9148 8.98721 32.2018 8.32244 33.1563C7.66619 34.1108 6.73721 34.7969 5.5355 35.2145C4.3338 35.6322 2.91476 35.841 1.2784 35.841C1.05681 35.841 0.848003 35.8367 0.65198 35.8282C0.455958 35.8197 0.242889 35.8111 0.0127757 35.8026V31.0597C0.166185 31.0768 0.302548 31.0895 0.421867 31.0981C0.541185 31.1066 0.660503 31.1108 0.779821 31.1108C1.64062 31.1108 2.23721 30.9489 2.56959 30.6251C2.90198 30.3097 3.06817 29.8239 3.06817 29.1677V8.84096ZM6.18749 6.55261C5.30965 6.55261 4.55539 6.26284 3.92471 5.68329C3.29403 5.09522 2.97868 4.38784 2.97868 3.56113C2.97868 2.74295 3.29403 2.04409 3.92471 1.46454C4.55539 0.876472 5.30965 0.582438 6.18749 0.582438C7.07386 0.582438 7.82812 0.876472 8.45028 1.46454C9.08096 2.04409 9.3963 2.74295 9.3963 3.56113C9.3963 4.38784 9.08096 5.09522 8.45028 5.68329C7.82812 6.26284 7.07386 6.55261 6.18749 6.55261ZM16.8542 28.8097C15.6013 28.8097 14.4891 28.6009 13.5175 28.1833C12.5544 27.7572 11.7917 27.118 11.2292 26.2657C10.6752 25.4049 10.3982 24.3268 10.3982 23.0313C10.3982 21.9404 10.5899 21.0199 10.9735 20.2699C11.357 19.5199 11.8854 18.9106 12.5587 18.4418C13.232 17.9731 14.0076 17.6194 14.8854 17.3807C15.7632 17.1336 16.7007 16.9674 17.6979 16.8822C18.8144 16.7799 19.7135 16.6733 20.3953 16.5626C21.0772 16.4432 21.5715 16.277 21.8783 16.064C22.1936 15.8424 22.3513 15.5313 22.3513 15.1307V15.0668C22.3513 14.4106 22.1255 13.9035 21.6738 13.5455C21.2221 13.1876 20.6127 13.0086 19.8456 13.0086C19.0189 13.0086 18.3542 13.1876 17.8513 13.5455C17.3485 13.9035 17.0289 14.3978 16.8925 15.0285L11.1269 14.8239C11.2973 13.6307 11.7363 12.5654 12.4436 11.6279C13.1596 10.6819 14.1397 9.94039 15.384 9.40346C16.6368 8.85801 18.1411 8.58528 19.8968 8.58528C21.1496 8.58528 22.3044 8.73443 23.3613 9.03272C24.4181 9.32249 25.3385 9.74863 26.1226 10.3111C26.9067 10.8651 27.5118 11.5469 27.938 12.3566C28.3726 13.1662 28.5899 14.091 28.5899 15.1307V28.4773H22.7093V25.7415H22.5559C22.2064 26.4063 21.759 26.9688 21.2135 27.429C20.6766 27.8893 20.0417 28.2344 19.3087 28.4645C18.5843 28.6947 17.7661 28.8097 16.8542 28.8097ZM18.7846 24.7188C19.4578 24.7188 20.063 24.5824 20.5999 24.3097C21.1453 24.037 21.58 23.662 21.9039 23.1847C22.2277 22.6989 22.3897 22.1364 22.3897 21.4972V19.6307C22.2107 19.7245 21.9934 19.8097 21.7377 19.8864C21.4905 19.9631 21.2178 20.0356 20.9195 20.1037C20.6212 20.1719 20.3144 20.2316 19.999 20.2827C19.6837 20.3339 19.3811 20.3807 19.0914 20.4233C18.5033 20.5171 18.0005 20.662 17.5828 20.858C17.1738 21.054 16.8584 21.3097 16.6368 21.6251C16.4238 21.9319 16.3172 22.2983 16.3172 22.7245C16.3172 23.3722 16.5473 23.8665 17.0076 24.2074C17.4763 24.5483 18.0686 24.7188 18.7846 24.7188ZM30.4324 28.4773V8.84096H36.6838V28.4773H30.4324ZM33.5645 6.55261C32.6867 6.55261 31.9324 6.26284 31.3017 5.68329C30.671 5.09522 30.3557 4.38784 30.3557 3.56113C30.3557 2.74295 30.671 2.04409 31.3017 1.46454C31.9324 0.876472 32.6867 0.582438 33.5645 0.582438C34.4509 0.582438 35.2051 0.876472 35.8273 1.46454C36.458 2.04409 36.7733 2.74295 36.7733 3.56113C36.7733 4.38784 36.458 5.09522 35.8273 5.68329C35.2051 6.26284 34.4509 6.55261 33.5645 6.55261ZM38.6829 28.4773V8.84096H44.7553V12.4205H44.9599C45.3178 11.1251 45.9016 10.162 46.7113 9.5313C47.5209 8.8921 48.4627 8.5725 49.5366 8.5725C49.8263 8.5725 50.1246 8.5938 50.4314 8.63642C50.7383 8.67051 51.0238 8.7259 51.288 8.80261V14.2358C50.9897 14.1336 50.5976 14.0526 50.1118 13.993C49.6346 13.9333 49.2084 13.9035 48.8334 13.9035C48.092 13.9035 47.4229 14.0697 46.8263 14.402C46.2383 14.7259 45.7738 15.1819 45.4329 15.7699C45.1005 16.3495 44.9343 17.0313 44.9343 17.8154V28.4773H38.6829ZM51.8552 28.4773V2.29551H58.1066V12.2032H58.2345C58.4902 11.6066 58.8524 11.0313 59.3211 10.4773C59.7984 9.92335 60.4035 9.47164 61.1365 9.12221C61.8779 8.76426 62.7643 8.58528 63.7955 8.58528C65.1592 8.58528 66.4333 8.94323 67.618 9.65914C68.8112 10.3751 69.7742 11.4787 70.5072 12.9702C71.2402 14.4617 71.6066 16.3623 71.6066 18.6719C71.6066 20.8964 71.2529 22.7586 70.5455 24.2586C69.8467 25.7586 68.9007 26.8836 67.7075 27.6336C66.5228 28.3836 65.2061 28.7586 63.7572 28.7586C62.7686 28.7586 61.912 28.5966 61.1876 28.2728C60.4632 27.9489 59.8538 27.5228 59.3595 26.9944C58.8737 26.466 58.4987 25.8992 58.2345 25.2941H58.0427V28.4773H51.8552ZM57.9788 18.6591C57.9788 19.716 58.1194 20.6364 58.4007 21.4205C58.6904 22.2046 59.1038 22.814 59.6407 23.2486C60.1862 23.6748 60.8382 23.8878 61.5967 23.8878C62.3637 23.8878 63.0157 23.6748 63.5526 23.2486C64.0896 22.814 64.4944 22.2046 64.7671 21.4205C65.0484 20.6364 65.189 19.716 65.189 18.6591C65.189 17.6023 65.0484 16.6861 64.7671 15.9106C64.4944 15.135 64.0896 14.5341 63.5526 14.108C63.0242 13.6819 62.3723 13.4688 61.5967 13.4688C60.8296 13.4688 60.1777 13.6776 59.6407 14.0952C59.1038 14.5128 58.6904 15.1094 58.4007 15.885C58.1194 16.6606 57.9788 17.5853 57.9788 18.6591ZM79.154 17.2785V28.4773H72.9025V8.84096H78.8471V12.4461H79.0645C79.4991 11.2444 80.2406 10.3026 81.2889 9.62079C82.3372 8.93045 83.5858 8.58528 85.0346 8.58528C86.4153 8.58528 87.6128 8.89636 88.627 9.51852C89.6497 10.1322 90.4423 10.9929 91.0048 12.1009C91.5758 13.2003 91.8571 14.4873 91.8486 15.9617V28.4773H85.5971V17.189C85.6057 16.0981 85.3287 15.2458 84.7662 14.6322C84.2122 14.0185 83.4409 13.7117 82.4523 13.7117C81.796 13.7117 81.2165 13.8566 80.7136 14.1464C80.2193 14.4276 79.8358 14.8324 79.5631 15.3608C79.2989 15.8893 79.1625 16.5285 79.154 17.2785ZM93.739 28.4773V2.29551H99.9904V12.2032H100.118C100.374 11.6066 100.736 11.0313 101.205 10.4773C101.682 9.92335 102.287 9.47164 103.02 9.12221C103.762 8.76426 104.648 8.58528 105.679 8.58528C107.043 8.58528 108.317 8.94323 109.502 9.65914C110.695 10.3751 111.658 11.4787 112.391 12.9702C113.124 14.4617 113.49 16.3623 113.49 18.6719C113.49 20.8964 113.137 22.7586 112.429 24.2586C111.73 25.7586 110.784 26.8836 109.591 27.6336C108.407 28.3836 107.09 28.7586 105.641 28.7586C104.652 28.7586 103.796 28.5966 103.071 28.2728C102.347 27.9489 101.738 27.5228 101.243 26.9944C100.757 26.466 100.382 25.8992 100.118 25.2941H99.9265V28.4773H93.739ZM99.8625 18.6591C99.8625 19.716 100.003 20.6364 100.284 21.4205C100.574 22.2046 100.988 22.814 101.524 23.2486C102.07 23.6748 102.722 23.8878 103.48 23.8878C104.247 23.8878 104.899 23.6748 105.436 23.2486C105.973 22.814 106.378 22.2046 106.651 21.4205C106.932 20.6364 107.073 19.716 107.073 18.6591C107.073 17.6023 106.932 16.6861 106.651 15.9106C106.378 15.135 105.973 14.5341 105.436 14.108C104.908 13.6819 104.256 13.4688 103.48 13.4688C102.713 13.4688 102.061 13.6776 101.524 14.0952C100.988 14.5128 100.574 15.1094 100.284 15.885C100.003 16.6606 99.8625 17.5853 99.8625 18.6591Z" fill="#FF385C"/>
</svg>
